<?xml version="1.0" encoding="UTF-8" standalone="no"?>
<!-- Created with Inkscape (http://www.inkscape.org/) -->

<svg
   width="189.17693mm"
   height="198.58383mm"
   viewBox="0 0 189.17693 198.58383"
   version="1.1"
   id="svg5"
   xml:space="preserve"
   inkscape:version="1.2.1 (9c6d41e410, 2022-07-14)"
   sodipodi:docname="logo.svg"
   inkscape:export-filename="logo.png"
   inkscape:export-xdpi="268.53171"
   inkscape:export-ydpi="268.53171"
   xmlns:inkscape="http://www.inkscape.org/namespaces/inkscape"
   xmlns:sodipodi="http://sodipodi.sourceforge.net/DTD/sodipodi-0.dtd"
   xmlns="http://www.w3.org/2000/svg"
   xmlns:svg="http://www.w3.org/2000/svg"><sodipodi:namedview
     id="namedview7"
     pagecolor="#ffffff"
     bordercolor="#000000"
     borderopacity="0.25"
     inkscape:showpageshadow="2"
     inkscape:pageopacity="0.0"
     inkscape:pagecheckerboard="0"
     inkscape:deskcolor="#d1d1d1"
     inkscape:document-units="mm"
     showgrid="false"
     inkscape:zoom="0.70710678"
     inkscape:cx="277.89297"
     inkscape:cy="357.79603"
     inkscape:window-width="2560"
     inkscape:window-height="1023"
     inkscape:window-x="0"
     inkscape:window-y="22"
     inkscape:window-maximized="1"
     inkscape:current-layer="layer1" /><defs
     id="defs2"><linearGradient
       id="linearGradient31314"
       inkscape:swatch="solid"><stop
         style="stop-color:#000000;stop-opacity:1;"
         offset="0"
         id="stop31312" /></linearGradient></defs><g
     inkscape:label="Layer 1"
     inkscape:groupmode="layer"
     id="layer1"
     transform="translate(-11.984717,-51.070394)"><path
       id="path1003"
       style="fill:#ffffff;fill-opacity:1;stroke:#000000;stroke-width:2.88044;stroke-dasharray:none;stroke-dashoffset:0;stroke-opacity:1"
       inkscape:transform-center-x="-2.6085556"
       inkscape:transform-center-y="-3.4221872"
       d="M -118.00595,296.26022 A 105.90049,115.68729 8.1978585 0 0 29.96329,265.07403 105.90049,115.68729 8.1978585 0 0 49.447091,202.52989 C 56.907665,199.52235 65.543845,192.79961 69.92568,189.45 77.518425,183.64588 95.636393,170.39617 95.286737,160.8455 94.982733,152.54181 75.843759,144.81537 68.17283,141.62155 59.594871,138.05008 39.94871,129.38332 31.423892,133.57166 A 105.90049,115.68729 8.1978585 0 0 4.9994222,104.74241 105.90049,115.68729 8.1978585 0 0 -142.969,135.92843 a 105.90049,115.68729 8.1978585 0 0 24.96305,160.33179 z"
       transform="matrix(-0.72775083,0.49074192,-0.4674096,-0.65712749,159.40441,304.84279)" /><g
       id="g35892"
       transform="matrix(1.2118686,0,0,1.2118686,-19.202502,-42.225205)"
       style="stroke:#000000;stroke-width:0;stroke-linecap:butt;stroke-linejoin:miter;stroke-miterlimit:5.2;stroke-dasharray:none;stroke-opacity:1;paint-order:normal"><path
         style="fill:#f1e3a3;stroke:#000000;stroke-width:1.49521;stroke-linecap:butt;stroke-linejoin:miter;stroke-miterlimit:5.2;stroke-dasharray:none;stroke-opacity:1;paint-order:normal"
         d="m 54.444976,199.046 0.03829,-0.35859 0.141568,-1.00403 0.141568,-1.00404 0.146332,-0.80323 0.146332,-0.80323 0.226196,-1.01647 0.226195,-1.01647 0.310278,-1.11334 0.310278,-1.11333 0.268248,-0.82493 0.268248,-0.82494 0.37264,-1.00404 0.372641,-1.00403 0.428826,-1.00232 0.428826,-1.00233 0.47189,-0.97706 0.47189,-0.97707 0.418374,-0.76892 0.418374,-0.76894 0.488307,-0.83752 0.488306,-0.83754 0.818354,-1.23353 0.818355,-1.23353 0.61873,-0.83192 0.61873,-0.83191 0.673717,-0.83192 0.673717,-0.83192 0.76335,-0.8606 0.763352,-0.8606 1.17869,-1.17643 1.17869,-1.17644 0.97535,-0.85418 0.975351,-0.85419 0.80323,-0.64379 0.80323,-0.64378 0.917977,-0.67558 0.917977,-0.67557 0.745856,-0.49947 0.745856,-0.49948 0.688483,-0.43033 0.688483,-0.43034 0.689922,-0.40138 0.689923,-0.40138 1.088658,-0.57831 1.088658,-0.57831 0.94604,-0.44149 0.946041,-0.44149 0.975974,-0.4157 0.975974,-0.41569 1.090098,-0.40352 1.090098,-0.40352 0.97535,-0.31739 0.975351,-0.31739 0.8033,-0.23089 0.803301,-0.23088 1.06134,-0.26282 1.061341,-0.26283 1.118784,-0.22408 1.118785,-0.22409 0.88929,-0.14499 0.88929,-0.14498 0.917977,-0.11472 0.917977,-0.11473 0.946664,-0.0867 0.946663,-0.0867 1.06141,-0.0588 1.06141,-0.0588 h 1.69252 1.69253 l 1.06141,0.0588 1.06141,0.0588 0.94666,0.0867 0.94666,0.0867 0.91798,0.11473 0.91798,0.11472 0.88929,0.14498 0.88929,0.14499 1.11878,0.22409 1.11879,0.22408 1.06134,0.26283 1.06134,0.26282 0.8033,0.23088 0.8033,0.23089 0.97535,0.31739 0.97535,0.31739 1.0901,0.40352 1.0901,0.40352 0.97597,0.41569 0.97597,0.4157 0.94605,0.44149 0.94604,0.44149 1.08865,0.57831 1.08866,0.57831 0.68992,0.40138 0.68993,0.40138 0.68848,0.43029 0.68848,0.43028 0.68849,0.46027 0.68848,0.46027 0.71717,0.51827 0.71717,0.51827 0.73853,0.57436 0.73854,0.57436 0.71321,0.59556 0.71322,0.59557 0.67107,0.60889 0.67107,0.60889 0.79441,0.77659 0.79441,0.7766 0.76322,0.83191 0.76323,0.83192 0.44293,0.51636 0.44294,0.51636 0.64515,0.80323 0.64515,0.80323 0.54429,0.74586 0.54429,0.74586 0.5409,0.80323 0.54091,0.80323 0.40725,0.65979 0.40726,0.6598 0.41598,0.71717 0.41598,0.71717 0.53514,1.03272 0.53513,1.03272 0.42896,0.92836 0.42896,0.92834 0.45768,1.1371 0.45767,1.1371 0.38159,1.11879 0.38159,1.11878 0.25488,0.87787 0.25488,0.87787 0.22535,0.90071 0.22534,0.90071 0.1497,0.71416 0.14969,0.71417 0.16688,0.97835 0.16687,0.97836 0.11769,0.91798 0.11768,0.91798 v 0.1004 0.1004 H 104.21235 54.406465 l 0.03829,-0.35858 z m 47.793844,-46.49521 -0.17212,-0.0198 -0.63111,-0.0625 -0.63111,-0.0625 -0.80323,-0.13449 -0.803232,-0.13448 -0.745856,-0.18212 -0.745857,-0.18212 -0.953694,-0.30974 -0.953693,-0.30974 -0.71014,-0.2904 -0.71014,-0.2904 -0.88929,-0.44473 -0.88929,-0.44472 -0.688483,-0.41756 -0.688483,-0.41756 -0.615736,-0.43199 -0.615736,-0.43198 -0.732542,-0.58694 -0.732543,-0.58694 -0.723551,-0.69527 -0.723552,-0.69527 -0.498147,-0.56772 -0.498146,-0.56772 -0.428902,-0.53844 -0.428901,-0.53843 -0.508495,-0.74586 -0.508495,-0.74585 -0.411601,-0.71717 -0.411601,-0.71717 -0.362379,-0.74586 -0.362378,-0.74586 -0.289422,-0.71717 -0.289421,-0.71717 -0.237353,-0.71716 -0.237351,-0.71717 -0.198574,-0.7666 -0.198573,-0.76659 -0.138366,-0.7538 -0.138367,-0.75381 -0.104615,-0.80323 -0.104615,-0.80323 0.0021,-1.97939 0.0021,-1.97939 0.127638,-0.90202 0.127638,-0.90202 0.145006,-0.73312 0.145006,-0.73313 0.174798,-0.65392 0.174798,-0.65391 0.229394,-0.69436 0.229394,-0.69437 0.314689,-0.77454 0.31469,-0.77455 0.528847,-1.03272 0.528847,-1.03272 0.394938,-0.63111 0.394937,-0.63111 0.46364,-0.65425 0.463638,-0.65424 0.600898,-0.72272 0.600899,-0.72272 0.804754,-0.80476 0.804754,-0.80475 0.722719,-0.6009 0.722719,-0.6009 0.654246,-0.46364 0.654247,-0.46364 0.631109,-0.39632 0.631109,-0.39632 1.090098,-0.55035 1.090098,-0.55035 0.88929,-0.34881 0.88929,-0.34881 0.573736,-0.1821 0.573735,-0.1821 0.764504,-0.19642 0.764504,-0.19641 0.755896,-0.13875 0.755897,-0.13875 0.80323,-0.10398 0.80323,-0.10397 h 1.86464 1.86464 l 0.80323,0.10397 0.80323,0.10398 0.75589,0.13875 0.7559,0.13875 0.7645,0.19641 0.76451,0.19642 0.57373,0.1821 0.57374,0.1821 0.88929,0.34881 0.88929,0.34881 1.0901,0.55035 1.09009,0.55035 0.63111,0.39632 0.63111,0.39632 0.65425,0.46364 0.65424,0.46364 0.72273,0.6009 0.72271,0.6009 0.80476,0.80475 0.80475,0.80476 0.6009,0.72272 0.6009,0.72272 0.46364,0.65424 0.46364,0.65425 0.39453,0.63111 0.39453,0.63111 0.47207,0.91797 0.47206,0.91798 0.29104,0.68033 0.29104,0.68032 0.30779,0.89745 0.30779,0.89745 0.2058,0.80323 0.20579,0.80323 0.14531,0.79037 0.14531,0.79037 0.0988,0.73003 0.0988,0.73002 0.002,1.95071 0.002,1.9507 -0.10526,0.80323 -0.10527,0.80323 -0.10557,0.57373 -0.10557,0.57374 -0.0958,0.4303 -0.0958,0.4303 -0.19178,0.68848 -0.19178,0.68849 -0.22506,0.65979 -0.22506,0.6598 -0.26177,0.6372 -0.26176,0.63721 -0.43728,0.87309 -0.43727,0.87308 -0.45025,0.75597 -0.45026,0.75596 -0.50571,0.70877 -0.50571,0.70878 -0.60359,0.72556 -0.60358,0.72557 -0.862,0.86376 -0.862,0.86376 -0.60243,0.48992 -0.60242,0.48992 -0.56262,0.41578 -0.56262,0.41577 -0.81435,0.5117 -0.81434,0.51169 -0.94666,0.48172 -0.94667,0.48172 -0.68848,0.28841 -0.68848,0.28841 -0.83192,0.28308 -0.83192,0.28308 -0.80323,0.20437 -0.80323,0.20437 -0.60242,0.11692 -0.60242,0.11691 -0.60242,0.0856 -0.60243,0.0856 -0.68848,0.0591 -0.68848,0.0591 -1.37697,-0.008 -1.37696,-0.008 z"
         id="path35912" /><path
         style="fill:#f4e163;stroke:#000000;stroke-width:0;stroke-linecap:butt;stroke-linejoin:miter;stroke-miterlimit:5.2;stroke-dasharray:none;stroke-opacity:1;paint-order:normal"
         d="m 54.446975,199.07469 0.03728,-0.3299 0.168488,-1.19474 0.168488,-1.19475 0.224454,-1.12908 0.224454,-1.12908 0.237262,-0.94646 0.237262,-0.94648 0.230659,-0.80323 0.230659,-0.80323 0.37144,-1.10951 0.37144,-1.10951 0.475276,-1.18543 0.475276,-1.18543 0.393316,-0.86061 0.393317,-0.8606 0.500764,-0.98088 0.500764,-0.98087 0.547139,-0.95419 0.547139,-0.95418 0.497758,-0.79019 0.497758,-0.79018 0.491958,-0.71717 0.491957,-0.71717 0.755392,-1.00404 0.755391,-1.00403 0.64679,-0.77455 0.64679,-0.77454 0.665527,-0.74127 0.665527,-0.74126 0.948042,-0.95208 0.948043,-0.95209 0.902551,-0.81338 0.902549,-0.81339 0.777454,-0.64071 0.777452,-0.64071 1.051107,-0.78934 1.051106,-0.78935 1.168914,-0.77627 1.168914,-0.77627 0.860604,-0.51454 0.860603,-0.51454 0.89998,-0.49317 0.89998,-0.49317 0.747315,-0.37448 0.747315,-0.37448 0.963202,-0.43761 0.963203,-0.4376 1.176158,-0.47435 1.176158,-0.47435 1.290905,-0.44023 1.290905,-0.44023 1.061411,-0.30922 1.061411,-0.30921 0.807105,-0.20203 0.807104,-0.20203 0.799355,-0.17573 0.799356,-0.17573 1.491713,-0.2534 1.491712,-0.25341 1.233532,-0.14521 1.233532,-0.14521 1.233529,-0.0979 1.23353,-0.0979 h 2.49575 2.49576 l 1.23353,0.0979 1.23353,0.0979 1.23353,0.14532 1.23353,0.14532 1.32954,0.22441 1.32954,0.2244 0.9654,0.20702 0.96541,0.20701 1.00403,0.25618 1.00404,0.25617 0.97478,0.2913 0.97478,0.29129 0.97963,0.33509 0.97962,0.33508 0.88559,0.3402 0.88558,0.3402 0.80323,0.34432 0.80323,0.34433 0.88929,0.41162 0.8893,0.41162 0.83191,0.43536 0.83192,0.43536 0.69712,0.38991 0.69712,0.38991 0.82328,0.49851 0.82328,0.49851 0.91797,0.61055 0.91798,0.61054 0.82525,0.60085 0.82525,0.60084 0.93269,0.74586 0.93271,0.74586 0.85217,0.74585 0.85219,0.74586 1.08304,1.06141 1.08304,1.06141 0.74492,0.81558 0.74492,0.81559 0.75967,0.91006 0.75967,0.91006 0.78096,1.04362 0.78096,1.04364 0.71384,1.07475 0.71385,1.07476 0.51217,0.8606 0.51218,0.8606 0.43803,0.80431 0.43804,0.80429 0.54166,1.11772 0.54166,1.11771 0.40719,0.96364 0.40718,0.96363 0.3673,0.98707 0.36729,0.98707 0.31968,1.00403 0.31969,1.00404 0.23289,0.85055 0.23289,0.85056 0.19477,0.84196 0.19479,0.84197 0.17515,0.91798 0.17516,0.91797 0.11173,0.74586 0.11172,0.74586 0.0631,0.54505 0.0631,0.54504 0.0297,0.18647 0.0297,0.18646 H 104.21668 54.409693 Z m 47.935275,-46.52083 -0.20081,-0.0231 -0.65979,-0.0619 -0.6598,-0.0619 -0.83192,-0.14097 -0.831912,-0.14098 -0.80323,-0.19772 -0.80323,-0.19772 -0.80323,-0.26467 -0.80323,-0.26467 -0.659796,-0.25938 -0.659796,-0.25939 -0.819353,-0.39183 -0.819352,-0.39183 -0.528927,-0.30003 -0.528925,-0.30002 -0.737566,-0.47984 -0.737565,-0.47985 -0.467279,-0.35331 -0.46728,-0.35332 -0.602422,-0.49091 -0.602423,-0.49092 -0.835556,-0.83191 -0.835557,-0.83192 -0.600217,-0.725 -0.600216,-0.72499 -0.462206,-0.65197 -0.462206,-0.65197 -0.391033,-0.62707 -0.391034,-0.62706 -0.475849,-0.92202 -0.475848,-0.92202 -0.290752,-0.68033 -0.29075,-0.68033 -0.307792,-0.89744 -0.307792,-0.89745 -0.205798,-0.80323 -0.205798,-0.80323 -0.142183,-0.77454 -0.142183,-0.77455 -0.102842,-0.83191 -0.102842,-0.83192 -0.0011,-1.83595 -0.0011,-1.83596 0.104585,-0.80323 0.104584,-0.80323 0.142098,-0.77454 0.142097,-0.77454 0.173629,-0.68849 0.173628,-0.68848 0.202384,-0.63111 0.202384,-0.63111 0.31502,-0.80323 0.31502,-0.80323 0.449544,-0.91797 0.449545,-0.91798 0.395166,-0.6626 0.395165,-0.6626 0.46522,-0.68568 0.46522,-0.68568 0.617368,-0.77454 0.617367,-0.77455 1.065047,-1.06504 1.065046,-1.06505 0.774543,-0.6189 0.774544,-0.6189 0.88929,-0.59199 0.88929,-0.59199 0.745857,-0.41581 0.745856,-0.41582 0.54422,-0.25304 0.54422,-0.25303 0.918806,-0.36334 0.918806,-0.36334 0.659796,-0.20398 0.659796,-0.20399 0.812358,-0.19876 0.812358,-0.19877 0.708041,-0.11866 0.708042,-0.11867 0.77454,-0.0963 0.77455,-0.0963 h 1.69252 1.69252 l 0.77454,0.0963 0.77454,0.0963 0.70805,0.11867 0.70804,0.11866 0.81235,0.19877 0.81236,0.19876 0.6598,0.20399 0.65979,0.20398 0.94533,0.37386 0.94533,0.37387 0.80457,0.40265 0.80456,0.40264 0.45899,0.26155 0.45899,0.26155 0.65556,0.42448 0.65555,0.42449 0.57798,0.43526 0.57797,0.43526 0.51636,0.43182 0.51637,0.43181 0.89244,0.89245 0.89245,0.89244 0.43181,0.51637 0.43182,0.51636 0.43526,0.57798 0.43526,0.57798 0.42449,0.65555 0.42448,0.65555 0.26153,0.45899 0.26154,0.45899 0.37673,0.75264 0.37673,0.75264 0.28589,0.6817 0.28589,0.6817 0.23062,0.67116 0.23062,0.67116 0.20189,0.73449 0.2019,0.73449 0.17297,0.8606 0.17296,0.86061 0.12825,0.94666 0.12824,0.94667 v 1.83595 1.83595 l -0.1308,0.97535 -0.1308,0.97535 -0.19402,0.93144 -0.19402,0.93143 -0.23428,0.80872 -0.23427,0.80872 -0.28836,0.77415 -0.28837,0.77416 -0.33898,0.74563 -0.33899,0.74564 -0.38031,0.69151 -0.3803,0.6915 -0.30993,0.51654 -0.30992,0.51653 -0.44293,0.63082 -0.44294,0.63082 -0.48492,0.58118 -0.48494,0.58118 -0.25689,0.28687 -0.25689,0.28687 -0.66563,0.67991 -0.66562,0.67991 -0.57374,0.49691 -0.57373,0.49692 -0.6598,0.49152 -0.6598,0.49153 -0.77454,0.48973 -0.77454,0.48973 -0.68849,0.37411 -0.68848,0.3741 -0.65979,0.29944 -0.6598,0.29945 -0.63111,0.24507 -0.63111,0.24507 -0.74072,0.24041 -0.74072,0.24041 -0.80836,0.19442 -0.80837,0.19441 -0.6598,0.117 -0.65979,0.11701 -0.77455,0.0906 -0.77454,0.0906 -1.57777,0.0191 -1.57778,0.0191 -0.2008,-0.0231 z"
         id="path35910" /><path
         style="fill:#f9ef33;stroke:#000000;stroke-width:0;stroke-linecap:butt;stroke-linejoin:miter;stroke-miterlimit:5.2;stroke-dasharray:none;stroke-opacity:1;paint-order:normal"
         d="m 54.446975,199.07469 0.03728,-0.3299 0.168488,-1.19474 0.168488,-1.19475 0.224454,-1.12908 0.224454,-1.12908 0.237262,-0.94646 0.237262,-0.94648 0.230659,-0.80323 0.230659,-0.80323 0.37144,-1.10951 0.37144,-1.10951 0.475276,-1.18543 0.475276,-1.18543 0.393316,-0.86061 0.393317,-0.8606 0.500764,-0.98088 0.500764,-0.98087 0.547139,-0.95419 0.547139,-0.95418 0.497758,-0.79019 0.497758,-0.79018 0.491958,-0.71717 0.491957,-0.71717 0.755392,-1.00404 0.755391,-1.00403 0.64679,-0.77455 0.64679,-0.77454 0.665527,-0.74127 0.665527,-0.74126 0.948042,-0.95208 0.948043,-0.95209 0.902551,-0.81338 0.902549,-0.81339 0.777454,-0.64071 0.777452,-0.64071 1.051107,-0.78934 1.051106,-0.78935 1.168914,-0.77627 1.168914,-0.77627 0.860604,-0.51454 0.860603,-0.51454 0.89998,-0.49317 0.89998,-0.49317 0.747315,-0.37448 0.747315,-0.37448 0.963202,-0.43761 0.963203,-0.4376 1.176158,-0.47435 1.176158,-0.47435 1.290905,-0.44023 1.290905,-0.44023 1.061411,-0.30997 1.061411,-0.30997 1.032724,-0.25379 1.032725,-0.25379 0.745856,-0.14948 0.745856,-0.14948 1.004038,-0.17184 1.004037,-0.17185 1.061411,-0.14096 1.061411,-0.14096 0.917977,-0.087 0.917983,-0.087 1.00403,-0.0683 1.00404,-0.0683 h 2.09413 2.09414 l 1.00404,0.0683 1.00403,0.0683 0.91798,0.087 0.91798,0.087 1.06141,0.14146 1.06141,0.14146 1.00404,0.1747 1.00404,0.1747 0.83191,0.17079 0.83192,0.17077 1.31959,0.33747 1.31959,0.33746 1.1331,0.34875 1.1331,0.34876 1.04709,0.37775 1.0471,0.37776 0.90772,0.36912 0.90772,0.36911 0.82134,0.36793 0.82135,0.36793 1.1683,0.58453 1.1683,0.58454 0.77455,0.43155 0.77454,0.43156 0.71717,0.42948 0.71717,0.42947 1.23353,0.81673 1.23353,0.81673 0.91798,0.68626 0.91798,0.68627 0.67827,0.55028 0.67827,0.55029 0.84176,0.73598 0.84176,0.73597 1.08304,1.06141 1.08304,1.06141 0.74492,0.81558 0.74492,0.81559 0.75967,0.91006 0.75967,0.91006 0.78096,1.04362 0.78096,1.04364 0.71384,1.07475 0.71385,1.07476 0.51217,0.8606 0.51218,0.8606 0.43803,0.80431 0.43804,0.80429 0.54166,1.11772 0.54166,1.11771 0.40719,0.96364 0.40718,0.96363 0.3673,0.98707 0.36729,0.98707 0.31968,1.00403 0.31969,1.00404 0.23289,0.85055 0.23289,0.85056 0.19477,0.84196 0.19479,0.84197 0.17515,0.91798 0.17516,0.91797 0.11173,0.74586 0.11172,0.74586 0.0631,0.54505 0.0631,0.54504 0.0297,0.18647 0.0297,0.18646 H 104.21668 54.409693 Z m 48.136085,-46.52589 -0.28687,-0.0183 -0.85968,-0.0893 -0.85969,-0.0893 -0.77546,-0.14243 -0.775463,-0.14244 -0.717169,-0.17543 -0.71717,-0.17542 -0.831917,-0.27618 -0.831916,-0.27617 -0.432318,-0.17183 -0.432318,-0.17183 -0.608731,-0.26001 -0.608731,-0.26 -0.47935,-0.24047 -0.479351,-0.24047 -0.458989,-0.26113 -0.458988,-0.26113 -0.737566,-0.47945 -0.737565,-0.47945 -0.467279,-0.35331 -0.46728,-0.35332 -0.602422,-0.49091 -0.602423,-0.49092 -0.835556,-0.83191 -0.835557,-0.83192 -0.600217,-0.725 -0.600216,-0.72499 -0.462206,-0.65197 -0.462206,-0.65197 -0.391033,-0.62707 -0.391034,-0.62706 -0.475849,-0.92202 -0.475848,-0.92202 -0.290752,-0.68033 -0.29075,-0.68033 -0.307792,-0.89744 -0.307792,-0.89745 -0.205798,-0.80323 -0.205798,-0.80323 -0.142183,-0.77454 -0.142183,-0.77455 -0.102842,-0.83191 -0.102842,-0.83192 -0.0011,-1.83595 -0.0011,-1.83596 0.104585,-0.80323 0.104584,-0.80323 0.142098,-0.77454 0.142097,-0.77454 0.173629,-0.68849 0.173628,-0.68848 0.202384,-0.63111 0.202384,-0.63111 0.31502,-0.80323 0.31502,-0.80323 0.449544,-0.91797 0.449545,-0.91798 0.395166,-0.6626 0.395165,-0.6626 0.46522,-0.68568 0.46522,-0.68568 0.617368,-0.77454 0.617367,-0.77455 1.065047,-1.06504 1.065046,-1.06505 0.774543,-0.6176 0.774544,-0.6176 0.745856,-0.50304 0.745856,-0.50305 0.545049,-0.31639 0.545049,-0.31639 0.503691,-0.27175 0.503691,-0.27175 0.270852,-0.10397 0.270852,-0.10397 0.688483,-0.29743 0.688483,-0.29744 0.932967,-0.31195 0.932967,-0.31194 0.931674,-0.225 0.931674,-0.22501 0.688482,-0.11572 0.68848,-0.11572 0.88929,-0.0957 0.88929,-0.0957 h 1.40566 1.40565 l 0.88929,0.0957 0.88929,0.0957 0.68848,0.11595 0.68849,0.11596 0.83191,0.19909 0.83192,0.19908 0.74586,0.23356 0.74585,0.23356 0.78292,0.30921 0.78293,0.30921 0.82353,0.39232 0.82354,0.39232 0.63111,0.36277 0.63111,0.36277 0.79484,0.53837 0.79484,0.53836 0.47673,0.37226 0.47672,0.37225 0.70782,0.62252 0.70783,0.62253 0.48818,0.50974 0.48819,0.50974 0.49249,0.57374 0.49249,0.57373 0.38153,0.50309 0.38152,0.50309 0.45013,0.67307 0.45012,0.67307 0.34641,0.60242 0.34639,0.60243 0.31828,0.63571 0.31827,0.63571 0.31208,0.74125 0.31208,0.74126 0.29678,0.88854 0.29678,0.88855 0.22617,0.91872 0.22618,0.91872 0.14275,0.88929 0.14275,0.88929 0.073,0.63111 0.073,0.63111 -0.002,1.63515 -0.002,1.63514 -0.1003,0.85 -0.1003,0.85 -0.11498,0.64172 -0.11499,0.64171 -0.19624,0.81645 -0.19625,0.81645 -0.29279,0.89282 -0.29278,0.89281 -0.28012,0.68146 -0.28011,0.68145 -0.42633,0.85089 -0.42634,0.85088 -0.3746,0.64026 -0.3746,0.64026 -0.35901,0.5359 -0.359,0.5359 -0.34592,0.45899 -0.34592,0.45898 -0.7582,0.86061 -0.75819,0.8606 -0.59295,0.57986 -0.59296,0.57987 -0.43031,0.36851 -0.4303,0.36852 -0.57373,0.4336 -0.57374,0.4336 -0.80323,0.51798 -0.80323,0.51797 -0.53453,0.3004 -0.53453,0.30039 -0.75637,0.35854 -0.75638,0.35855 -0.71717,0.28929 -0.71717,0.28929 -0.71717,0.23084 -0.71717,0.23085 -0.54505,0.1453 -0.54505,0.1453 -0.68848,0.14275 -0.68848,0.14275 -0.83192,0.11591 -0.83192,0.11591 -0.94666,0.0596 -0.94666,0.0596 -0.74586,-0.0101 -0.74586,-0.0101 -0.28686,-0.0183 z"
         id="path35908" /><path
         style="fill:#f4ab57;stroke:#000000;stroke-width:0;stroke-linecap:butt;stroke-linejoin:miter;stroke-miterlimit:5.2;stroke-dasharray:none;stroke-opacity:1;paint-order:normal"
         d="m 54.446975,199.07469 0.03728,-0.3299 0.168488,-1.19474 0.168488,-1.19475 0.224454,-1.12908 0.224454,-1.12908 0.237262,-0.94646 0.237262,-0.94648 0.230659,-0.80323 0.230659,-0.80323 0.37144,-1.10951 0.37144,-1.10951 0.475276,-1.18543 0.475276,-1.18543 0.393316,-0.86061 0.393317,-0.8606 0.500764,-0.98088 0.500764,-0.98087 0.547139,-0.95419 0.547139,-0.95418 0.497758,-0.79019 0.497758,-0.79018 0.491958,-0.71717 0.491957,-0.71717 0.755392,-1.00404 0.755391,-1.00403 0.64679,-0.77455 0.64679,-0.77454 0.665527,-0.74127 0.665527,-0.74126 0.948042,-0.95208 0.948043,-0.95209 0.902551,-0.81338 0.902549,-0.81339 0.777454,-0.64071 0.777452,-0.64071 1.051107,-0.78934 1.051106,-0.78935 1.168914,-0.77627 1.168914,-0.77627 0.860604,-0.51454 0.860603,-0.51454 0.89998,-0.49317 0.89998,-0.49317 0.747315,-0.37448 0.747315,-0.37448 0.963202,-0.43761 0.963203,-0.4376 1.176158,-0.47435 1.176158,-0.47435 1.290905,-0.44023 1.290905,-0.44023 1.061411,-0.30926 1.061411,-0.30926 0.917977,-0.22772 0.917977,-0.22772 0.71717,-0.15207 0.717169,-0.15206 0.100404,-0.0288 0.100404,-0.0288 v 20.94522 20.94521 H 74.236388 54.409693 Z m 59.524735,-20.64124 v -20.97113 l 0.12909,0.0298 0.12909,0.0298 0.86061,0.1748 0.8606,0.17479 1.31959,0.33747 1.31959,0.33746 1.1331,0.34875 1.1331,0.34876 1.04709,0.37775 1.0471,0.37776 0.90772,0.36912 0.90772,0.36911 0.82134,0.36793 0.82135,0.36793 1.1683,0.58453 1.1683,0.58454 0.77455,0.43155 0.77454,0.43156 0.71717,0.42948 0.71717,0.42947 1.23353,0.81673 1.23353,0.81673 0.91798,0.68626 0.91798,0.68627 0.67827,0.55028 0.67827,0.55029 0.84176,0.73598 0.84176,0.73597 1.08304,1.06141 1.08304,1.06141 0.74492,0.81558 0.74492,0.81559 0.75967,0.91006 0.75967,0.91006 0.78096,1.04362 0.78096,1.04364 0.71384,1.07475 0.71385,1.07476 0.51217,0.8606 0.51218,0.8606 0.43803,0.80431 0.43804,0.80429 0.54166,1.11772 0.54166,1.11771 0.40719,0.96364 0.40718,0.96363 0.3673,0.98707 0.36729,0.98707 0.31968,1.00403 0.31969,1.00404 0.23289,0.85055 0.23289,0.85056 0.19477,0.84196 0.19479,0.84197 0.17515,0.91798 0.17516,0.91797 0.11173,0.74586 0.11172,0.74586 0.0631,0.54505 0.0631,0.54504 0.0297,0.18647 0.0297,0.18646 H 133.99757 113.9716 Z m -20.740543,-28.44841 -0.80323,-0.41703 -0.458988,-0.27841 -0.458989,-0.2784 -0.516362,-0.34434 -0.516362,-0.34433 -0.458989,-0.34555 -0.458988,-0.34556 -0.602422,-0.49091 -0.602423,-0.49092 -0.835556,-0.83191 -0.835557,-0.83192 -0.600217,-0.725 -0.600216,-0.72499 -0.462206,-0.65197 -0.462206,-0.65197 -0.391033,-0.62707 -0.391034,-0.62706 -0.475849,-0.92202 -0.475848,-0.92202 -0.290752,-0.68033 -0.29075,-0.68033 -0.307792,-0.89744 -0.307792,-0.89745 -0.205798,-0.80323 -0.205798,-0.80323 -0.142183,-0.77454 -0.142183,-0.77455 -0.102842,-0.83191 -0.102842,-0.83192 -0.0011,-1.83595 -0.0011,-1.83596 0.104585,-0.80323 0.104584,-0.80323 0.142098,-0.77454 0.142097,-0.77454 0.173629,-0.68849 0.173628,-0.68848 0.202384,-0.63111 0.202384,-0.63111 0.31502,-0.80323 0.31502,-0.80323 0.449544,-0.91797 0.449545,-0.91798 0.395166,-0.6626 0.395165,-0.6626 0.46522,-0.68568 0.46522,-0.68568 0.617368,-0.77454 0.617367,-0.77455 1.065047,-1.06504 1.065046,-1.06505 0.774543,-0.6189 0.774544,-0.6189 0.88929,-0.59199 0.88929,-0.59199 0.725687,-0.40404 0.725687,-0.40405 0.319777,-0.15683 0.319778,-0.15683 0.03037,0.0304 0.03037,0.0304 -0.01442,21.00546 -0.01442,21.00547 z m 20.740543,-20.63358 v -20.94263 l 0.47333,0.23735 0.47333,0.23735 0.60243,0.34631 0.60242,0.34631 0.67307,0.45012 0.67307,0.45013 0.50309,0.38152 0.50309,0.38153 0.57373,0.49249 0.57374,0.49249 0.50974,0.48819 0.50975,0.48818 0.62252,0.70783 0.62252,0.70782 0.37225,0.47673 0.37226,0.47672 0.53836,0.79484 0.53837,0.79484 0.34534,0.60242 0.34533,0.60243 0.31828,0.63571 0.31827,0.63571 0.31208,0.74125 0.31208,0.74126 0.29678,0.88854 0.29678,0.88855 0.22617,0.91872 0.22618,0.91872 0.14275,0.88929 0.14275,0.88929 0.073,0.63111 0.073,0.63111 -0.002,1.63515 -0.002,1.63514 -0.1003,0.85 -0.1003,0.85 -0.11498,0.64172 -0.11499,0.64171 -0.19624,0.81645 -0.19625,0.81645 -0.29279,0.89282 -0.29278,0.89281 -0.28012,0.68146 -0.28011,0.68145 -0.42633,0.85089 -0.42634,0.85088 -0.3746,0.64026 -0.3746,0.64026 -0.35901,0.5359 -0.359,0.5359 -0.34592,0.45899 -0.34592,0.45898 -0.7582,0.86061 -0.75819,0.8606 -0.59295,0.57986 -0.59296,0.57987 -0.43031,0.36851 -0.4303,0.36852 -0.57373,0.4336 -0.57374,0.4336 -0.80323,0.51766 -0.80323,0.51766 -0.45899,0.25877 -0.45899,0.25877 -0.47333,0.23758 -0.47333,0.23757 z"
         id="path35906" /><path
         style="fill:#52fa96;stroke:#000000;stroke-width:0;stroke-linecap:butt;stroke-linejoin:miter;stroke-miterlimit:5.2;stroke-dasharray:none;stroke-opacity:1;paint-order:normal"
         d="m 54.446975,199.07469 0.03728,-0.3299 0.168488,-1.19474 0.168488,-1.19475 0.224454,-1.12908 0.224454,-1.12908 0.237262,-0.94646 0.237262,-0.94648 0.230659,-0.80323 0.230659,-0.80323 0.37144,-1.10951 0.37144,-1.10951 0.475276,-1.18543 0.475276,-1.18543 0.393316,-0.86061 0.393317,-0.8606 0.500764,-0.98088 0.500764,-0.98087 0.547139,-0.95419 0.547139,-0.95418 0.497758,-0.79019 0.497758,-0.79018 0.491958,-0.71717 0.491957,-0.71717 0.755392,-1.00404 0.755391,-1.00403 0.64679,-0.77455 0.64679,-0.77454 0.665527,-0.74127 0.665527,-0.74126 0.948042,-0.95208 0.948043,-0.95209 0.902551,-0.81338 0.902549,-0.81339 0.777454,-0.64071 0.777452,-0.64071 1.051107,-0.78934 1.051106,-0.78935 1.168914,-0.77627 1.168914,-0.77627 0.860604,-0.51454 0.860603,-0.51454 0.89998,-0.49317 0.89998,-0.49317 0.747315,-0.37448 0.747315,-0.37448 0.963202,-0.43761 0.963203,-0.4376 1.176158,-0.47435 1.176158,-0.47435 1.290905,-0.44023 1.290905,-0.44023 1.061411,-0.30926 1.061411,-0.30926 0.917977,-0.22772 0.917977,-0.22772 0.71717,-0.15207 0.717169,-0.15206 0.100404,-0.0288 0.100404,-0.0288 v 20.94522 20.94521 H 74.236388 54.409693 Z m 59.524735,-20.63348 v -20.96337 l 0.38727,0.0749 0.38727,0.0749 0.66439,0.1448 0.66439,0.1448 0.94207,0.23615 0.94207,0.23616 0.80323,0.23028 0.80323,0.23027 0.88929,0.28889 0.88929,0.28889 1.21106,0.45025 1.21104,0.45024 1.0839,0.4668 1.08389,0.4668 1.14747,0.55768 1.14747,0.55769 0.95761,0.52563 0.9576,0.52564 0.96441,0.58379 0.96441,0.58379 1.00827,0.67651 1.00826,0.67652 1.0285,0.76686 1.02849,0.76688 0.68849,0.56534 0.68848,0.56534 0.45899,0.3993 0.45899,0.39931 1.04519,0.97548 1.04519,0.97549 0.97075,1.03988 0.97075,1.03989 0.5397,0.63111 0.5397,0.6311 0.46116,0.57374 0.46116,0.57374 0.6037,0.80938 0.60369,0.80938 0.48826,0.71102 0.48825,0.71101 0.50074,0.79491 0.50075,0.79491 0.51485,0.89761 0.51485,0.89761 0.64916,1.29091 0.64916,1.2909 0.32961,0.74586 0.3296,0.74586 0.41878,1.06221 0.41877,1.06221 0.26551,0.77374 0.26551,0.77375 0.28435,0.93642 0.28434,0.93643 0.25285,1.01427 0.25285,1.01428 0.14703,0.68848 0.14705,0.68848 0.14436,0.79081 0.14435,0.79079 0.14379,1.06058 0.14379,1.06058 v 0.19972 0.19973 H 133.9664 113.97171 Z m -20.740543,-28.45617 -0.80323,-0.41703 -0.458988,-0.27841 -0.458989,-0.2784 -0.516362,-0.34434 -0.516362,-0.34433 -0.458989,-0.34555 -0.458988,-0.34556 -0.602422,-0.49091 -0.602423,-0.49092 -0.835556,-0.83191 -0.835557,-0.83192 -0.600217,-0.725 -0.600216,-0.72499 -0.462206,-0.65197 -0.462206,-0.65197 -0.391033,-0.62707 -0.391034,-0.62706 -0.475849,-0.92202 -0.475848,-0.92202 -0.290752,-0.68033 -0.29075,-0.68033 -0.307792,-0.89744 -0.307792,-0.89745 -0.205798,-0.80323 -0.205798,-0.80323 -0.142183,-0.77454 -0.142183,-0.77455 -0.102842,-0.83191 -0.102842,-0.83192 -0.0011,-1.83595 -0.0011,-1.83596 0.104585,-0.80323 0.104584,-0.80323 0.142098,-0.77454 0.142097,-0.77454 0.173629,-0.68849 0.173628,-0.68848 0.202384,-0.63111 0.202384,-0.63111 0.31502,-0.80323 0.31502,-0.80323 0.449544,-0.91797 0.449545,-0.91798 0.395166,-0.6626 0.395165,-0.6626 0.46522,-0.68568 0.46522,-0.68568 0.617368,-0.77454 0.617367,-0.77455 1.065047,-1.06504 1.065046,-1.06505 0.774543,-0.6189 0.774544,-0.6189 0.88929,-0.59199 0.88929,-0.59199 0.725687,-0.40404 0.725687,-0.40405 0.319777,-0.15683 0.319778,-0.15683 0.03037,0.0304 0.03037,0.0304 -0.01442,21.00546 -0.01442,21.00547 z m 20.740543,-20.63358 v -20.95089 l 0.67414,0.35834 0.67414,0.35833 0.74512,0.45601 0.74511,0.45601 0.66054,0.47557 0.66053,0.47557 0.63111,0.52372 0.63111,0.52372 0.85369,0.84466 0.85368,0.84467 0.60106,0.71717 0.60107,0.71717 0.49121,0.68273 0.49121,0.68273 0.53879,0.89205 0.5388,0.89204 0.42056,0.8636 0.42056,0.8636 0.31662,0.80323 0.31662,0.80323 0.23356,0.74586 0.23356,0.74585 0.19908,0.83192 0.19909,0.83191 0.11516,0.68849 0.11516,0.68848 0.0881,0.77454 0.0881,0.77455 0.0368,1.00403 0.0369,1.00404 -0.0677,1.00404 -0.0677,1.00404 -0.10947,0.78313 -0.10947,0.78313 -0.14409,0.70858 -0.14409,0.70858 -0.23408,0.85139 -0.23409,0.85139 -0.26306,0.72638 -0.26307,0.72639 -0.2865,0.65979 -0.2865,0.6598 -0.24499,0.48767 -0.245,0.48768 -0.32809,0.57374 -0.32809,0.57373 -0.11397,0.20081 -0.11398,0.20081 -0.31311,0.47279 -0.31311,0.4728 -0.3513,0.47387 -0.3513,0.47386 -0.51462,0.60243 -0.51463,0.60242 -0.66553,0.70471 -0.66553,0.70471 -0.57374,0.50556 -0.57374,0.50556 -0.57192,0.44616 -0.57192,0.44617 -0.48949,0.3276 -0.48949,0.3276 -0.65979,0.40188 -0.6598,0.40188 -0.67414,0.35844 -0.67414,0.35845 z"
         id="path35904" /><path
         style="fill:#91ea63;stroke:#000000;stroke-width:0;stroke-linecap:butt;stroke-linejoin:miter;stroke-miterlimit:5.2;stroke-dasharray:none;stroke-opacity:1;paint-order:normal"
         d="m 54.513047,198.75913 0.07574,-0.64545 0.148315,-0.97535 0.148315,-0.97535 0.195085,-0.97535 0.195085,-0.97535 0.26234,-1.06142 0.26234,-1.06141 0.174007,-0.60242 0.174006,-0.60242 0.288722,-0.88929 0.288722,-0.88929 0.34381,-0.91798 0.343811,-0.91798 0.434967,-1.03272 0.434967,-1.03272 0.730358,-1.46303 0.730357,-1.46303 0.515946,-0.89761 0.515946,-0.89761 0.500743,-0.79491 0.500743,-0.79491 0.488253,-0.71101 0.488253,-0.71102 0.603695,-0.80938 0.603696,-0.80938 0.461164,-0.57374 0.461163,-0.57374 0.538917,-0.6311 0.538915,-0.63111 0.955313,-1.0235 0.955313,-1.0235 0.862332,-0.81245 0.862331,-0.81246 0.658068,-0.579 0.658068,-0.579 0.688483,-0.56461 0.688483,-0.56462 0.91194,-0.6822 0.911941,-0.68221 0.08131,-0.0813 0.08131,-0.0813 1.15826,-0.76917 1.158259,-0.76917 0.860604,-0.51454 0.860603,-0.51454 0.89998,-0.49317 0.89998,-0.49317 0.747315,-0.37448 0.747315,-0.37448 0.963202,-0.43761 0.963203,-0.4376 1.176158,-0.47435 1.176158,-0.47435 1.290905,-0.44023 1.290905,-0.44023 1.061411,-0.30926 1.061411,-0.30926 0.917977,-0.22772 0.917977,-0.22772 0.71717,-0.15207 0.717169,-0.15206 0.100404,-0.0288 0.100404,-0.0288 v 20.94522 20.94521 H 74.250197 54.437311 Z m 59.458663,-20.31792 v -20.96337 l 0.38727,0.0749 0.38727,0.0749 0.66439,0.1448 0.66439,0.1448 0.94207,0.23615 0.94207,0.23616 0.80323,0.23028 0.80323,0.23027 0.88929,0.28889 0.88929,0.28889 1.21106,0.45025 1.21104,0.45024 1.0839,0.4668 1.08389,0.4668 1.14747,0.55768 1.14747,0.55769 0.95761,0.52563 0.9576,0.52564 0.96441,0.58379 0.96441,0.58379 1.00827,0.67651 1.00826,0.67652 1.0285,0.76686 1.02849,0.76688 0.68849,0.56534 0.68848,0.56534 0.45899,0.3993 0.45899,0.39931 1.04519,0.97548 1.04519,0.97549 0.97075,1.03988 0.97075,1.03989 0.5397,0.63111 0.5397,0.6311 0.46116,0.57374 0.46116,0.57374 0.6037,0.80938 0.60369,0.80938 0.48826,0.71102 0.48825,0.71101 0.50074,0.79491 0.50075,0.79491 0.51485,0.89761 0.51485,0.89761 0.64916,1.29091 0.64916,1.2909 0.32961,0.74586 0.3296,0.74586 0.41878,1.06221 0.41877,1.06221 0.26551,0.77374 0.26551,0.77375 0.28435,0.93642 0.28434,0.93643 0.25285,1.01427 0.25285,1.01428 0.14703,0.68848 0.14705,0.68848 0.14436,0.79081 0.14435,0.79079 0.14379,1.06058 0.14379,1.06058 v 0.19972 0.19973 H 133.9664 113.97171 Z m -20.740543,-28.45617 -0.80323,-0.41703 -0.458988,-0.27841 -0.458989,-0.2784 -0.516362,-0.34434 -0.516362,-0.34433 -0.458989,-0.34555 -0.458988,-0.34556 -0.602422,-0.49091 -0.602423,-0.49092 -0.835556,-0.83191 -0.835557,-0.83192 -0.600217,-0.725 -0.600216,-0.72499 -0.462206,-0.65197 -0.462206,-0.65197 -0.391033,-0.62707 -0.391034,-0.62706 -0.475849,-0.92202 -0.475848,-0.92202 -0.290752,-0.68033 -0.29075,-0.68033 -0.307792,-0.89744 -0.307792,-0.89745 -0.205798,-0.80323 -0.205798,-0.80323 -0.142183,-0.77454 -0.142183,-0.77455 -0.102842,-0.83191 -0.102842,-0.83192 -0.0011,-1.83595 -0.0011,-1.83596 0.104585,-0.80323 0.104584,-0.80323 0.142098,-0.77454 0.142097,-0.77454 0.173629,-0.68849 0.173628,-0.68848 0.202384,-0.63111 0.202384,-0.63111 0.31502,-0.80323 0.31502,-0.80323 0.449544,-0.91797 0.449545,-0.91798 0.395166,-0.6626 0.395165,-0.6626 0.46522,-0.68568 0.46522,-0.68568 0.617368,-0.77454 0.617367,-0.77455 1.065047,-1.06504 1.065046,-1.06505 0.774543,-0.6189 0.774544,-0.6189 0.88929,-0.59199 0.88929,-0.59199 0.725687,-0.40404 0.725687,-0.40405 0.319777,-0.15683 0.319778,-0.15683 0.03037,0.0304 0.03037,0.0304 -0.01442,21.00546 -0.01442,21.00547 z m 20.740543,-20.63358 v -20.95089 l 0.67414,0.35834 0.67414,0.35833 0.74512,0.45601 0.74511,0.45601 0.66054,0.47557 0.66053,0.47557 0.63111,0.52372 0.63111,0.52372 0.85369,0.84466 0.85368,0.84467 0.60106,0.71717 0.60107,0.71717 0.49121,0.68273 0.49121,0.68273 0.53879,0.89205 0.5388,0.89204 0.42056,0.8636 0.42056,0.8636 0.31662,0.80323 0.31662,0.80323 0.23356,0.74586 0.23356,0.74585 0.19908,0.83192 0.19909,0.83191 0.11516,0.68849 0.11516,0.68848 0.0881,0.77454 0.0881,0.77455 0.0368,1.00403 0.0369,1.00404 -0.0677,1.00404 -0.0677,1.00404 -0.10947,0.78313 -0.10947,0.78313 -0.14409,0.70858 -0.14409,0.70858 -0.23408,0.85139 -0.23409,0.85139 -0.26306,0.72638 -0.26307,0.72639 -0.2865,0.65979 -0.2865,0.6598 -0.24499,0.48767 -0.245,0.48768 -0.32809,0.57374 -0.32809,0.57373 -0.11397,0.20081 -0.11398,0.20081 -0.31311,0.47279 -0.31311,0.4728 -0.3513,0.47387 -0.3513,0.47386 -0.51462,0.60243 -0.51463,0.60242 -0.66553,0.70471 -0.66553,0.70471 -0.57374,0.50556 -0.57374,0.50556 -0.57192,0.44616 -0.57192,0.44617 -0.48949,0.3276 -0.48949,0.3276 -0.65979,0.40188 -0.6598,0.40188 -0.67414,0.35844 -0.67414,0.35845 z"
         id="path35902" /><path
         style="fill:#fe903f;stroke:#000000;stroke-width:0;stroke-linecap:butt;stroke-linejoin:miter;stroke-miterlimit:5.2;stroke-dasharray:none;stroke-opacity:1;paint-order:normal"
         d="m 54.513047,198.75913 0.07574,-0.64545 0.148315,-0.97535 0.148315,-0.97535 0.195085,-0.97535 0.195085,-0.97535 0.26234,-1.06142 0.26234,-1.06141 0.174007,-0.60242 0.174006,-0.60242 0.288722,-0.88929 0.288722,-0.88929 0.34381,-0.91798 0.343811,-0.91798 0.434967,-1.03272 0.434967,-1.03272 0.730358,-1.46303 0.730357,-1.46303 0.515946,-0.89761 0.515946,-0.89761 0.500743,-0.79491 0.500743,-0.79491 0.488253,-0.71101 0.488253,-0.71102 0.603695,-0.80938 0.603696,-0.80938 0.461164,-0.57374 0.461163,-0.57374 0.538917,-0.6311 0.538915,-0.63111 0.955313,-1.0235 0.955313,-1.0235 0.862332,-0.81245 0.862331,-0.81246 0.658068,-0.579 0.658068,-0.579 0.688483,-0.56506 0.688483,-0.56506 1.028494,-0.76688 1.028495,-0.76686 1.008267,-0.67652 1.008267,-0.67651 0.964409,-0.58379 0.964408,-0.58379 0.957606,-0.52564 0.957606,-0.52563 1.147471,-0.55769 1.147471,-0.55768 1.061411,-0.45707 1.061411,-0.45706 1.147472,-0.43116 1.147471,-0.43115 0.975351,-0.31784 0.97535,-0.31783 0.80323,-0.23002 0.80323,-0.23002 0.659796,-0.17013 0.659796,-0.17013 1.041634,-0.23518 1.041635,-0.23518 h 0.09149 0.09149 v 20.91266 20.91266 H 74.250197 54.437311 Z m 59.458663,-20.31792 v -20.96337 l 0.38727,0.0749 0.38727,0.0749 0.66439,0.1448 0.66439,0.1448 0.94207,0.23615 0.94207,0.23616 0.80323,0.23028 0.80323,0.23027 0.88929,0.28889 0.88929,0.28889 1.21106,0.45025 1.21104,0.45024 1.0839,0.4668 1.08389,0.4668 1.14747,0.55768 1.14747,0.55769 0.95761,0.52563 0.9576,0.52564 0.96441,0.58379 0.96441,0.58379 1.00827,0.67651 1.00826,0.67652 1.0285,0.76686 1.02849,0.76688 0.68849,0.56534 0.68848,0.56534 0.45899,0.3993 0.45899,0.39931 1.04519,0.97548 1.04519,0.97549 0.97075,1.03988 0.97075,1.03989 0.5397,0.63111 0.5397,0.6311 0.46116,0.57374 0.46116,0.57374 0.6037,0.80938 0.60369,0.80938 0.48826,0.71102 0.48825,0.71101 0.50074,0.79491 0.50075,0.79491 0.51485,0.89761 0.51485,0.89761 0.64916,1.29091 0.64916,1.2909 0.32961,0.74586 0.3296,0.74586 0.41878,1.06221 0.41877,1.06221 0.26551,0.77374 0.26551,0.77375 0.28435,0.93642 0.28434,0.93643 0.25285,1.01427 0.25285,1.01428 0.14703,0.68848 0.14705,0.68848 0.14436,0.79081 0.14435,0.79079 0.14379,1.06058 0.14379,1.06058 v 0.19972 0.19973 H 133.9664 113.97171 Z m -20.797916,-28.51203 -0.80323,-0.41858 -0.63111,-0.38988 -0.631109,-0.38988 -0.567343,-0.40345 -0.567343,-0.40345 -0.723562,-0.57362 -0.723562,-0.57362 -1.035836,-1.03891 -1.035836,-1.0389 -0.618123,-0.77454 -0.618122,-0.77455 -0.504082,-0.74585 -0.504081,-0.74586 -0.345425,-0.60242 -0.345426,-0.60242 -0.341385,-0.66458 -0.341385,-0.66458 -0.30141,-0.71239 -0.301411,-0.71238 -0.28559,-0.83192 -0.285591,-0.83192 -0.251798,-0.98882 -0.251799,-0.98882 -0.144202,-0.93319 -0.144201,-0.9332 -0.07119,-0.65979 -0.07119,-0.6598 4.02e-4,-1.63514 4.02e-4,-1.63515 0.129952,-0.97535 0.129953,-0.97535 0.172953,-0.88692 0.172953,-0.88691 0.251647,-0.87678 0.251647,-0.87679 0.325261,-0.8468 0.32526,-0.8468 0.353052,-0.77454 0.353053,-0.77454 0.448931,-0.80316 0.448931,-0.80316 0.536077,-0.80467 0.536078,-0.80467 0.597854,-0.74449 0.597855,-0.74448 0.571436,-0.61763 0.571438,-0.61763 0.597534,-0.55362 0.597536,-0.55362 0.620858,-0.50725 0.620858,-0.50724 0.5553,-0.39224 0.5553,-0.39224 0.559172,-0.35447 0.559172,-0.35447 0.903614,-0.48651 0.903608,-0.4865 h 0.04327 0.04327 v 20.99872 20.99873 l -0.04303,-0.001 -0.04303,-0.001 -0.80323,-0.41859 z m 20.797916,-20.57772 v -20.95089 l 0.67414,0.35834 0.67414,0.35833 0.74512,0.45601 0.74511,0.45601 0.66054,0.47557 0.66053,0.47557 0.63111,0.52372 0.63111,0.52372 0.85369,0.84466 0.85368,0.84467 0.60106,0.71717 0.60107,0.71717 0.49121,0.68273 0.49121,0.68273 0.53879,0.89205 0.5388,0.89204 0.42056,0.8636 0.42056,0.8636 0.31662,0.80323 0.31662,0.80323 0.23356,0.74586 0.23356,0.74585 0.19908,0.83192 0.19909,0.83191 0.11516,0.68849 0.11516,0.68848 0.0881,0.77454 0.0881,0.77455 0.0368,1.00403 0.0369,1.00404 -0.0677,1.00404 -0.0677,1.00404 -0.10947,0.78313 -0.10947,0.78313 -0.14409,0.70858 -0.14409,0.70858 -0.23408,0.85139 -0.23409,0.85139 -0.26306,0.72638 -0.26307,0.72639 -0.2865,0.65979 -0.2865,0.6598 -0.24499,0.48767 -0.245,0.48768 -0.32809,0.57374 -0.32809,0.57373 -0.11397,0.20081 -0.11398,0.20081 -0.31311,0.47279 -0.31311,0.4728 -0.3513,0.47387 -0.3513,0.47386 -0.51462,0.60243 -0.51463,0.60242 -0.66553,0.70471 -0.66553,0.70471 -0.57374,0.50556 -0.57374,0.50556 -0.57192,0.44616 -0.57192,0.44617 -0.48949,0.3276 -0.48949,0.3276 -0.65979,0.40188 -0.6598,0.40188 -0.67414,0.35844 -0.67414,0.35845 z"
         id="path35900" /><path
         style="fill:#e2aa23;stroke:#000000;stroke-width:0;stroke-linecap:butt;stroke-linejoin:miter;stroke-miterlimit:5.2;stroke-dasharray:none;stroke-opacity:1;paint-order:normal"
         d="m 54.513047,198.75913 0.07574,-0.64545 0.148315,-0.97535 0.148315,-0.97535 0.195085,-0.97535 0.195085,-0.97535 0.26234,-1.06142 0.26234,-1.06141 0.174007,-0.60242 0.174006,-0.60242 0.288722,-0.88929 0.288722,-0.88929 0.34381,-0.91798 0.343811,-0.91798 0.434967,-1.03272 0.434967,-1.03272 0.730358,-1.46303 0.730357,-1.46303 0.515946,-0.89761 0.515946,-0.89761 0.500743,-0.79491 0.500743,-0.79491 0.488253,-0.71101 0.488253,-0.71102 0.603695,-0.80938 0.603696,-0.80938 0.461164,-0.57374 0.461163,-0.57374 0.538917,-0.6311 0.538915,-0.63111 0.955313,-1.0235 0.955313,-1.0235 0.862332,-0.81245 0.862331,-0.81246 0.658068,-0.579 0.658068,-0.579 0.688483,-0.56506 0.688483,-0.56506 1.028494,-0.76688 1.028495,-0.76686 1.008267,-0.67652 1.008267,-0.67651 0.964409,-0.58379 0.964408,-0.58379 0.957606,-0.52564 0.957606,-0.52563 1.147471,-0.55769 1.147471,-0.55768 1.061411,-0.45707 1.061411,-0.45706 1.147472,-0.43116 1.147471,-0.43115 0.975351,-0.31784 0.97535,-0.31783 0.80323,-0.23002 0.80323,-0.23002 0.659796,-0.17013 0.659796,-0.17013 1.041634,-0.23518 1.041635,-0.23518 h 0.09149 0.09149 v 20.91266 20.91266 H 74.250197 54.437311 Z m 59.458663,-20.31792 v -20.96337 l 0.38727,0.0749 0.38727,0.0749 0.66439,0.1448 0.66439,0.1448 0.94207,0.23615 0.94207,0.23616 0.80323,0.23028 0.80323,0.23027 0.88929,0.28889 0.88929,0.28889 1.21106,0.45025 1.21104,0.45024 1.0839,0.4668 1.08389,0.4668 1.14747,0.55768 1.14747,0.55769 0.94667,0.51988 0.94666,0.51987 0.83192,0.50016 0.83191,0.50015 1.01753,0.66876 1.01753,0.66877 8.6e-4,16.8248 8.6e-4,16.82479 h -9.92563 -9.92563 v -20.96337 z m -20.797916,-28.51203 -0.80323,-0.41858 -0.63111,-0.38988 -0.631109,-0.38988 -0.567343,-0.40345 -0.567343,-0.40345 -0.723562,-0.57362 -0.723562,-0.57362 -1.035836,-1.03891 -1.035836,-1.0389 -0.618123,-0.77454 -0.618122,-0.77455 -0.504082,-0.74585 -0.504081,-0.74586 -0.345425,-0.60242 -0.345426,-0.60242 -0.341385,-0.66458 -0.341385,-0.66458 -0.30141,-0.71239 -0.301411,-0.71238 -0.28559,-0.83192 -0.285591,-0.83192 -0.251798,-0.98882 -0.251799,-0.98882 -0.144202,-0.93319 -0.144201,-0.9332 -0.07119,-0.65979 -0.07119,-0.6598 4.02e-4,-1.63514 4.02e-4,-1.63515 0.129952,-0.97535 0.129953,-0.97535 0.172953,-0.88692 0.172953,-0.88691 0.251647,-0.87678 0.251647,-0.87679 0.325261,-0.8468 0.32526,-0.8468 0.353052,-0.77454 0.353053,-0.77454 0.448931,-0.80316 0.448931,-0.80316 0.536077,-0.80467 0.536078,-0.80467 0.597854,-0.74449 0.597855,-0.74448 0.571436,-0.61763 0.571438,-0.61763 0.597534,-0.55362 0.597536,-0.55362 0.620858,-0.50725 0.620858,-0.50724 0.5553,-0.39224 0.5553,-0.39224 0.559172,-0.35447 0.559172,-0.35447 0.903614,-0.48651 0.903608,-0.4865 h 0.04327 0.04327 v 20.99872 20.99873 l -0.04303,-0.001 -0.04303,-0.001 -0.80323,-0.41859 z m 20.797916,-20.57772 v -20.95089 l 0.67414,0.35834 0.67414,0.35833 0.74512,0.45601 0.74511,0.45601 0.66054,0.47557 0.66053,0.47557 0.63111,0.52372 0.63111,0.52372 0.85369,0.84466 0.85368,0.84467 0.60106,0.71717 0.60107,0.71717 0.49121,0.68273 0.49121,0.68273 0.53879,0.89205 0.5388,0.89204 0.42056,0.8636 0.42056,0.8636 0.31662,0.80323 0.31662,0.80323 0.23356,0.74586 0.23356,0.74585 0.19908,0.83192 0.19909,0.83191 0.11516,0.68849 0.11516,0.68848 0.0881,0.77454 0.0881,0.77455 0.0368,1.00403 0.0369,1.00404 -0.0677,1.00404 -0.0677,1.00404 -0.10947,0.78313 -0.10947,0.78313 -0.14409,0.70858 -0.14409,0.70858 -0.23408,0.85139 -0.23409,0.85139 -0.26306,0.72638 -0.26307,0.72639 -0.2865,0.65979 -0.2865,0.6598 -0.24499,0.48767 -0.245,0.48768 -0.32809,0.57374 -0.32809,0.57373 -0.11397,0.20081 -0.11398,0.20081 -0.31311,0.47279 -0.31311,0.4728 -0.3513,0.47387 -0.3513,0.47386 -0.51462,0.60243 -0.51463,0.60242 -0.66553,0.70471 -0.66553,0.70471 -0.57374,0.50556 -0.57374,0.50556 -0.57192,0.44616 -0.57192,0.44617 -0.48949,0.3276 -0.48949,0.3276 -0.65979,0.40188 -0.6598,0.40188 -0.67414,0.35844 -0.67414,0.35845 z"
         id="path35898" /><path
         style="fill:#27fa7c;stroke:#000000;stroke-width:0;stroke-linecap:butt;stroke-linejoin:miter;stroke-miterlimit:5.2;stroke-dasharray:none;stroke-opacity:1;paint-order:normal"
         d="m 54.513047,198.75913 0.07574,-0.64545 0.148315,-0.97535 0.148315,-0.97535 0.195085,-0.97535 0.195085,-0.97535 0.26234,-1.06142 0.26234,-1.06141 0.174007,-0.60242 0.174006,-0.60242 0.288722,-0.88929 0.288722,-0.88929 0.34381,-0.91798 0.343811,-0.91798 0.434967,-1.03272 0.434967,-1.03272 0.730358,-1.46303 0.730357,-1.46303 0.515946,-0.89761 0.515946,-0.89761 0.500743,-0.79491 0.500743,-0.79491 0.488253,-0.71101 0.488253,-0.71102 0.603695,-0.80938 0.603696,-0.80938 0.461164,-0.57374 0.461163,-0.57374 0.538917,-0.6311 0.538915,-0.63111 0.955313,-1.0235 0.955313,-1.0235 0.862332,-0.81245 0.862331,-0.81246 0.658068,-0.579 0.658068,-0.579 0.688483,-0.56506 0.688483,-0.56506 1.028494,-0.76688 1.028495,-0.76686 1.008267,-0.67652 1.008267,-0.67651 0.964409,-0.58379 0.964408,-0.58379 0.957606,-0.52564 0.957606,-0.52563 1.147471,-0.55769 1.147471,-0.55768 1.061411,-0.45707 1.061411,-0.45706 1.147472,-0.43116 1.147471,-0.43115 0.975351,-0.31784 0.97535,-0.31783 0.80323,-0.23002 0.80323,-0.23002 0.659796,-0.17013 0.659796,-0.17013 1.041634,-0.23518 1.041635,-0.23518 h 0.09149 0.09149 v 20.91266 20.91266 H 74.250197 54.437311 Z m 38.660747,-48.82995 -0.80323,-0.41858 -0.63111,-0.38988 -0.631109,-0.38988 -0.567343,-0.40345 -0.567343,-0.40345 -0.723562,-0.57362 -0.723562,-0.57362 -1.035836,-1.03891 -1.035836,-1.0389 -0.618123,-0.77454 -0.618122,-0.77455 -0.504082,-0.74585 -0.504081,-0.74586 -0.345425,-0.60242 -0.345426,-0.60242 -0.341385,-0.66458 -0.341385,-0.66458 -0.30141,-0.71239 -0.301411,-0.71238 -0.28559,-0.83192 -0.285591,-0.83192 -0.251798,-0.98882 -0.251799,-0.98882 -0.144202,-0.93319 -0.144201,-0.9332 -0.07119,-0.65979 -0.07119,-0.6598 4.02e-4,-1.63514 4.02e-4,-1.63515 0.129952,-0.97535 0.129953,-0.97535 0.172953,-0.88692 0.172953,-0.88691 0.251647,-0.87678 0.251647,-0.87679 0.325261,-0.8468 0.32526,-0.8468 0.353052,-0.77454 0.353053,-0.77454 0.448931,-0.80316 0.448931,-0.80316 0.536077,-0.80467 0.536078,-0.80467 0.597854,-0.74449 0.597855,-0.74448 0.571436,-0.61763 0.571438,-0.61763 0.597534,-0.55362 0.597536,-0.55362 0.620858,-0.50725 0.620858,-0.50724 0.5553,-0.39224 0.5553,-0.39224 0.559172,-0.35447 0.559172,-0.35447 0.903614,-0.48651 0.903608,-0.4865 h 0.04327 0.04327 v 20.99872 20.99873 l -0.04303,-0.001 -0.04303,-0.001 -0.80323,-0.41859 z"
         id="path35896" /><path
         style="fill:#64e223;stroke:#000000;stroke-width:0;stroke-linecap:butt;stroke-linejoin:miter;stroke-miterlimit:5.2;stroke-dasharray:none;stroke-opacity:1;paint-order:normal"
         d="m 74.154457,182.74312 v -16.66146 l 1.104441,-0.74302 1.104441,-0.74302 0.964409,-0.58347 0.964408,-0.58348 0.957606,-0.52564 0.957606,-0.52563 1.147471,-0.55769 1.147471,-0.55768 1.061411,-0.45707 1.061411,-0.45706 1.147472,-0.43116 1.147471,-0.43115 0.975351,-0.31784 0.97535,-0.31783 0.80323,-0.23002 0.80323,-0.23002 0.659796,-0.17013 0.659796,-0.17013 1.041634,-0.23518 1.041635,-0.23518 h 0.09149 0.09149 v 20.91266 20.91266 H 84.10877 74.154457 Z m 19.019337,-32.81394 -0.80323,-0.41858 -0.63111,-0.38988 -0.631109,-0.38988 -0.567343,-0.40345 -0.567343,-0.40345 -0.723562,-0.57362 -0.723562,-0.57362 -1.035836,-1.03891 -1.035836,-1.0389 -0.618123,-0.77454 -0.618122,-0.77455 -0.504082,-0.74585 -0.504081,-0.74586 -0.345425,-0.60242 -0.345426,-0.60242 -0.341385,-0.66458 -0.341385,-0.66458 -0.30141,-0.71239 -0.301411,-0.71238 -0.28559,-0.83192 -0.285591,-0.83192 -0.251798,-0.98882 -0.251799,-0.98882 -0.144202,-0.93319 -0.144201,-0.9332 -0.07119,-0.65979 -0.07119,-0.6598 4.02e-4,-1.63514 4.02e-4,-1.63515 0.129952,-0.97535 0.129953,-0.97535 0.172953,-0.88692 0.172953,-0.88691 0.251647,-0.87678 0.251647,-0.87679 0.325261,-0.8468 0.32526,-0.8468 0.353052,-0.77454 0.353053,-0.77454 0.448931,-0.80316 0.448931,-0.80316 0.536077,-0.80467 0.536078,-0.80467 0.597854,-0.74449 0.597855,-0.74448 0.571436,-0.61763 0.571438,-0.61763 0.597534,-0.55362 0.597536,-0.55362 0.620858,-0.50725 0.620858,-0.50724 0.5553,-0.39224 0.5553,-0.39224 0.559172,-0.35447 0.559172,-0.35447 0.903614,-0.48651 0.903608,-0.4865 h 0.04327 0.04327 v 20.99872 20.99873 l -0.04303,-0.001 -0.04303,-0.001 -0.80323,-0.41859 z"
         id="path35894" /></g></g></svg>
